<?xml version="1.0" encoding="utf-8"?>
<!-- Generator: Adobe Illustrator 16.0.0, SVG Export Plug-In . SVG Version: 6.00 Build 0)  -->
<!DOCTYPE svg PUBLIC "-//W3C//DTD SVG 1.1//EN" "http://www.w3.org/Graphics/SVG/1.1/DTD/svg11.dtd">
<svg version="1.1" id="圖層_3" xmlns="http://www.w3.org/2000/svg" xmlns:xlink="http://www.w3.org/1999/xlink" x="0px" y="0px"
	 width="130px" height="50px" viewBox="0 0 130 50" enable-background="new 0 0 130 50" xml:space="preserve">
<g>
	<path fill="#FFFFFF" stroke="#000000" stroke-miterlimit="10" d="M68.142,16.127c0,0-3.661,4.012,1.983,6.235
		c5.644,2.222,13.009,5.881,30.166,3.95c3.759-0.32,3.402-3.59,3.575-5.504l-2.611-2.973L68.142,16.127z"/>
	<path fill="#FFFFFF" stroke="#000000" stroke-miterlimit="10" d="M103.387,18.88c0,0,3.978,0.894,2.089,2.184
		c0,0,3.495,2.404-2.189,2.71c-1.386-0.697-2.1-2.163-2.469,0.808c-0.819,1.067-4.508,0.55-2.394-1.896
		c-0.243-0.543-2.892-0.822-1.568,1.951c-0.695,1.041-2.837,0.929-5.219,0.682c0,0-2.957-0.117-0.318-2.536
		c-0.224-1.365-1.547-1.145-1.6-0.084s-3.535-0.565-2.965-1.271c0.57-0.706,1.507-2.735-1.779-1.275
		c-3.288,1.463-6.976-2.852-3.241-4.214C81.733,15.938,96.559,15.765,103.387,18.88z"/>
	<path fill="#FFFFFF" stroke="#000000" stroke-miterlimit="10" d="M70.533,13.055c0,0-4.039-0.549-2.724,1.318
		c0,0-4.121,1.033,1.095,3.302c1.545-0.17,2.728-1.293,2.029,1.617c0.392,1.284,4.026,2.086,2.907-0.94
		c0.42-0.425,2.999,0.237,0.783,2.374c0.285,1.216,2.33,1.857,4.647,2.456c0,0,2.812,0.921,1.191-2.264
		c0.69-1.199,1.853-0.532,1.528,0.479s3.51,0.703,3.225-0.157c-0.286-0.86-0.449-3.087,2.115-0.573
		c2.563,2.515,7.538-0.242,4.52-2.819C91.851,17.847,78.026,12.517,70.533,13.055z"/>
	<path fill="#FFFFFF" stroke="#000000" stroke-miterlimit="10" d="M68.771,12.19c0,0,0.199-7.065,9.28-10.199
		c4.105-1.205,12.658-1.728,16.621,0.472c4.072,1.481,12.078,6.993,9.448,15.888C104.121,18.351,81.276,18.881,68.771,12.19z"/>
	<path fill="#FFFFFF" stroke="#000000" stroke-width="0.3" stroke-miterlimit="10" d="M98.166,10.397
		c-0.043,0.171-0.073,0.362-0.233,0.337c-0.16-0.025-0.268-0.184-0.213-0.542c0.036-0.237,0.209-0.476,0.209-0.476
		S98.221,10.041,98.166,10.397z"/>
	<path fill="#FFFFFF" stroke="#000000" stroke-width="0.3" stroke-miterlimit="10" d="M101.55,11.425
		c-0.043,0.171-0.073,0.361-0.233,0.336c-0.16-0.024-0.269-0.183-0.214-0.541c0.037-0.237,0.21-0.476,0.21-0.476
		S101.604,11.067,101.55,11.425z"/>
	<path fill="#FFFFFF" stroke="#000000" stroke-width="0.3" stroke-miterlimit="10" d="M96.702,11.696
		c-0.043,0.171-0.073,0.362-0.233,0.337c-0.16-0.025-0.268-0.184-0.213-0.542c0.036-0.237,0.209-0.476,0.209-0.476
		S96.757,11.339,96.702,11.696z"/>
	<path fill="#FFFFFF" stroke="#000000" stroke-width="0.3" stroke-miterlimit="10" d="M82.524,7.489
		c-0.043,0.171-0.073,0.361-0.233,0.336c-0.16-0.024-0.269-0.183-0.214-0.541c0.037-0.237,0.21-0.476,0.21-0.476
		S82.579,7.132,82.524,7.489z"/>
	<path fill="#FFFFFF" stroke="#000000" stroke-width="0.3" stroke-miterlimit="10" d="M75.323,7.036
		c-0.159,0.085-0.324,0.192-0.416,0.061c-0.091-0.13-0.045-0.313,0.264-0.516c0.205-0.134,0.503-0.172,0.503-0.172
		S75.631,6.834,75.323,7.036z"/>
	<path fill="#FFFFFF" stroke="#000000" stroke-width="0.3" stroke-miterlimit="10" d="M77.637,4.161
		c-0.159,0.085-0.324,0.191-0.416,0.061c-0.091-0.131-0.045-0.314,0.264-0.516c0.205-0.134,0.503-0.171,0.503-0.171
		S77.944,3.96,77.637,4.161z"/>
	<path fill="#FFFFFF" stroke="#000000" stroke-width="0.3" stroke-miterlimit="10" d="M80.938,5.175
		c-0.159,0.085-0.323,0.192-0.416,0.061c-0.091-0.13-0.045-0.313,0.264-0.516c0.206-0.134,0.504-0.171,0.504-0.171
		S81.245,4.974,80.938,5.175z"/>
	<path fill="#FFFFFF" stroke="#000000" stroke-width="0.3" stroke-miterlimit="10" d="M87.909,6.753
		c-0.159,0.084-0.324,0.191-0.416,0.061c-0.091-0.13-0.045-0.314,0.264-0.515c0.205-0.135,0.503-0.172,0.503-0.172
		S88.217,6.552,87.909,6.753z"/>
	<path fill="#FFFFFF" stroke="#000000" stroke-width="0.3" stroke-miterlimit="10" d="M84.581,5.227
		c-0.159,0.085-0.324,0.191-0.417,0.061c-0.091-0.13-0.045-0.313,0.264-0.515c0.206-0.134,0.504-0.171,0.504-0.171
		S84.889,5.026,84.581,5.227z"/>
	<path fill="#FFFFFF" stroke="#000000" stroke-width="0.3" stroke-miterlimit="10" d="M90.789,8.369
		c-0.159,0.084-0.323,0.192-0.416,0.061c-0.091-0.13-0.045-0.313,0.264-0.515c0.205-0.134,0.504-0.172,0.504-0.172
		S91.097,8.167,90.789,8.369z"/>
	<path fill="#FFFFFF" stroke="#000000" stroke-width="0.3" stroke-miterlimit="10" d="M87.566,11.346
		c-0.159,0.085-0.323,0.192-0.416,0.061c-0.091-0.13-0.045-0.313,0.264-0.515c0.205-0.134,0.504-0.172,0.504-0.172
		S87.874,11.145,87.566,11.346z"/>
	<path fill="#FFFFFF" stroke="#000000" stroke-width="0.3" stroke-miterlimit="10" d="M91.839,3.89
		c-0.159,0.085-0.323,0.192-0.416,0.061c-0.091-0.13-0.045-0.313,0.264-0.515c0.205-0.135,0.504-0.172,0.504-0.172
		S92.146,3.689,91.839,3.89z"/>
	<path fill="#FFFFFF" stroke="#000000" stroke-width="0.3" stroke-miterlimit="10" d="M93.083,6.454
		c-0.018,0.176-0.02,0.369-0.182,0.367s-0.291-0.145-0.29-0.507c0.002-0.241,0.137-0.5,0.137-0.5S93.085,6.093,93.083,6.454z"/>
	<path fill="#FFFFFF" stroke="#000000" stroke-width="0.3" stroke-miterlimit="10" d="M87.008,2.99
		c-0.018,0.176-0.02,0.369-0.182,0.367c-0.162-0.003-0.291-0.145-0.29-0.507c0.002-0.242,0.138-0.501,0.138-0.501
		S87.01,2.629,87.008,2.99z"/>
	<path fill="#FFFFFF" stroke="#000000" stroke-width="0.3" stroke-miterlimit="10" d="M85.844,8.917
		c-0.017,0.176-0.019,0.369-0.182,0.367c-0.161-0.003-0.291-0.145-0.289-0.507c0.001-0.242,0.137-0.501,0.137-0.501
		S85.846,8.556,85.844,8.917z"/>
	<path fill="#FFFFFF" stroke="#000000" stroke-width="0.3" stroke-miterlimit="10" d="M92.68,12.398
		c-0.018,0.176-0.02,0.369-0.183,0.367c-0.161-0.002-0.29-0.145-0.289-0.508c0.001-0.241,0.137-0.5,0.137-0.5
		S92.682,12.037,92.68,12.398z"/>
	<path fill="#FFFFFF" stroke="#000000" stroke-width="0.3" stroke-miterlimit="10" d="M79.937,8.576
		c-0.017,0.176-0.019,0.369-0.182,0.367c-0.161-0.003-0.291-0.145-0.289-0.508c0.001-0.241,0.137-0.5,0.137-0.5
		S79.938,8.215,79.937,8.576z"/>
	<path fill="#FFFFFF" stroke="#000000" stroke-width="0.3" stroke-miterlimit="10" d="M97.335,7.573
		c-0.043,0.171-0.073,0.362-0.233,0.337c-0.16-0.024-0.268-0.183-0.213-0.541c0.036-0.237,0.209-0.476,0.209-0.476
		S97.39,7.216,97.335,7.573z"/>
	<path fill="none" stroke="#000000" stroke-width="0.3" stroke-miterlimit="10" d="M73.734,14.324c0,0-2.488-0.369-3.367,0.964"/>
	<path fill="none" stroke="#000000" stroke-width="0.3" stroke-miterlimit="10" d="M77.136,15.369c0,0-2.756-0.961-4.748,2.132"/>
	<path fill="none" stroke="#000000" stroke-width="0.3" stroke-miterlimit="10" d="M80.674,16.218c0,0,2.442,0.591,2.504,2.94"/>
	<path fill="none" stroke="#000000" stroke-width="0.3" stroke-miterlimit="10" d="M86.592,17.245c0,0,2.124,0.941,3.122,2.155"/>
	<path fill="none" stroke="#000000" stroke-width="0.3" stroke-miterlimit="10" d="M82.718,16.661c0,0,1.355,0.013,1.505,1.211"/>
	<path fill="none" stroke="#000000" stroke-width="0.3" stroke-miterlimit="10" d="M96.968,18.204c0,0-3.521,1.606-3.146,4.111"/>
	<path fill="none" stroke="#000000" stroke-width="0.3" stroke-miterlimit="10" d="M99.171,18.229c0,0,3.33,0.279,4.22,3.271"/>
	<path fill="none" stroke="#000000" stroke-width="0.3" stroke-miterlimit="10" d="M99.748,18.313c0,0,1.581,1.05,0.335,2.667"/>
</g>
<path fill="#FFFFFF" stroke="#000000" stroke-miterlimit="10" d="M71.988,43.327c0,0-5.206-0.797-2.717,3.386
	c1.812,2.787,3.847,2.305,9.734,2.305c5.886,0,18.564,0,18.564,0s5.915,0.108,6.448-3.045c0.69-2.707-0.56-2.707-3.279-2.707
	S71.988,43.327,71.988,43.327z"/>
<text transform="matrix(0.9786 0.2059 -0.2059 0.9786 21.062 36.4023)" fill="#FFFFFF" font-family="'MicrosoftJhengHeiBold'" font-size="38.1795">萊</text>
<g>
	<g>
		<path fill="#FFFFFF" d="M70.57,34.532c-0.263,0.661-1.237,2.024-1.19,2.206c0.049,0.188,1.045,0.575,1.187,0.677
			c-0.296,0.511-0.441,0.766-0.729,1.278c-0.681-0.488-1.49-0.925-2.43-1.308c0.394,2.141,0.593,3.21,0.986,5.351
			c-0.545,0.101-0.818,0.15-1.362,0.259c-0.385-1.939-0.576-2.91-0.961-4.85c-0.337,0.485-0.76,1.004-1.262,1.551
			c-0.454-0.311-0.683-0.466-1.143-0.771c1.783-1.834,3.013-3.704,3.62-5.667c-1.758,0.313-2.635,0.489-4.383,0.875
			c-0.112-0.509-0.169-0.764-0.281-1.272c2.421-0.534,3.637-0.768,6.077-1.164c0.084,0.515,0.126,0.771,0.21,1.286
			c-0.444,1.205-1.446,2.911-1.412,2.998c0.006,0.015,0.563,0.309,0.683,0.271c0.306-0.096,0.878-1.493,1.165-2.138
			C69.837,34.279,70.083,34.362,70.57,34.532z M66.792,31.317c-0.531,0.298-0.797,0.449-1.322,0.753
			c-0.654-0.55-1.253-0.966-1.79-1.249c0.516-0.346,0.777-0.518,1.299-0.857C65.725,30.371,66.328,30.825,66.792,31.317z
			 M76.541,28.942c0.203,2.482,0.307,3.725,0.511,6.207c0.246,3.204,0.289,4.977,0.126,5.32c-0.162,0.342-0.372,0.63-0.627,0.864
			c-0.255,0.233-1.019,0.384-2.291,0.486c-0.25-0.507-0.376-0.758-0.631-1.263c1.096-0.101,1.725-0.194,1.89-0.311
			c0.166-0.116,0.275-0.269,0.326-0.456c0.051-0.187,0.01-1.214-0.122-3.078c-0.132-1.863-0.314-3.974-0.555-6.33
			c-0.852,0.087-1.276,0.133-2.126,0.236c0.384,3.16,0.292,5.598-0.222,7.307c-0.515,1.711-1.293,3.227-2.317,4.57
			c-0.51-0.276-0.768-0.411-1.284-0.682c0.869-1.157,1.523-2.292,1.933-3.414c0.41-1.123,0.641-2.255,0.677-3.403
			c0.036-1.147-0.055-2.544-0.287-4.183c-1.019,0.138-1.528,0.214-2.544,0.375c-0.082-0.515-0.125-0.773-0.207-1.288
			C71.88,29.41,73.432,29.218,76.541,28.942z"/>
		<path fill="#FFFFFF" d="M93.258,38.025c-2.411-0.161-3.618-0.207-6.033-0.227c-0.011,1.313-0.017,1.968-0.027,3.28
			c-0.564-0.005-0.844-0.006-1.408-0.002c-0.009-1.313-0.014-1.966-0.022-3.278c-2.437,0.016-3.654,0.06-6.087,0.219
			c-0.033-0.503-0.051-0.756-0.084-1.259c2.463-0.161,3.696-0.203,6.163-0.219c-0.004-0.642-0.006-0.961-0.01-1.603
			c-1.919,0.012-2.878,0.038-4.795,0.137c-0.135-2.618-0.199-3.928-0.335-6.546c4.68-0.24,7.025-0.239,11.705,0.008
			c-0.14,2.618-0.206,3.928-0.345,6.546c-1.892-0.1-2.842-0.129-4.735-0.145c-0.005,0.642-0.005,0.961-0.01,1.603
			c2.445,0.02,3.666,0.065,6.107,0.229C93.309,37.271,93.291,37.522,93.258,38.025z M90.686,31.098
			c0.021-0.557,0.031-0.833,0.054-1.389c-3.403-0.133-5.11-0.136-8.512-0.008c0.021,0.557,0.031,0.832,0.052,1.389
			C85.639,30.964,87.325,30.967,90.686,31.098z M90.578,33.754c0.022-0.57,0.035-0.855,0.058-1.426
			c-3.322-0.13-4.989-0.131-8.311-0.006c0.021,0.57,0.034,0.855,0.056,1.426C85.658,33.625,87.299,33.626,90.578,33.754z"/>
		<path fill="#FFFFFF" d="M103.21,30.732c-0.896-0.137-1.345-0.202-2.242-0.32c-0.028,0.215-0.043,0.322-0.071,0.537
			c0.747,0.099,1.12,0.15,1.865,0.262c-0.058,0.386-0.087,0.578-0.145,0.964c-1.673,1.325-3.799,2.122-6.412,2.483
			c-0.219-0.452-0.329-0.675-0.553-1.126c0.879-0.105,2.383-0.434,2.383-0.434c0.016-0.059-0.811-0.784-0.947-0.774
			c-0.117,0.009-0.505,0.353-0.858,0.502c-0.213-0.416-0.321-0.628-0.539-1.043c0.78-0.449,1.555-1.139,2.338-2.078
			c0.471,0.176,0.706,0.264,1.174,0.444c-0.142,0.22-0.286,0.398-0.435,0.539c0.297,0.033,0.446,0.052,0.743,0.087
			c0.095-0.794,0.142-1.19,0.236-1.984c0.564,0.067,0.847,0.103,1.411,0.177c-0.025,0.191-0.039,0.288-0.064,0.479
			c0.905,0.119,1.358,0.183,2.262,0.32C103.297,30.153,103.269,30.347,103.21,30.732z M109.417,37.663
			c-0.322,0.36-0.482,0.545-0.801,0.907c-0.526-0.244-1.003-0.501-1.428-0.767c-0.213,1.054-0.318,1.581-0.531,2.636
			c0.314,0.276,0.469,0.415,0.779,0.693c-0.365,0.249-0.546,0.375-0.907,0.627c0.643,0.311,1.201,0.609,1.681,0.896
			c-0.309,0.337-0.462,0.507-0.766,0.846c-1.527-0.911-3.255-1.668-5.164-2.24c0.257-0.354,0.386-0.527,0.646-0.879
			c0.771,0.217,1.808,0.809,2.229,0.786c0.171-0.009,0.538-0.321,0.805-0.504c-3.026-0.592-4.549-0.828-7.603-1.189
			c-0.052,0.439-0.079,0.66-0.131,1.1c1.619-0.05,2.785-0.093,3.489-0.178c-0.065,0.429-0.1,0.644-0.165,1.072
			c-1.216,0.12-2.825,0.153-4.831,0.16c-0.088-0.442-0.131-0.664-0.222-1.105c0.273-0.085,0.427-0.282,0.46-0.598
			c0.151-1.451,0.226-2.179,0.378-3.63c-0.338,0.078-0.774,0.168-1.308,0.275c-0.233-0.442-0.348-0.662-0.587-1.104
			c3.162-0.526,5.623-1.249,7.379-2.319c0.475,0.28,0.713,0.421,1.182,0.706c-0.017,0.037-0.179,0.134-0.181,0.148
			C103.778,34.368,106.933,36.407,109.417,37.663z M100.787,31.918c-1.111-0.147-1.669-0.215-2.783-0.333
			c0.251,0.203,0.905,1.06,1.236,1.12C99.594,32.77,100.495,32.136,100.787,31.918z M106.23,37.295
			c-0.479-0.28-1.047-0.665-1.711-1.146c-0.024,0.142-0.038,0.212-0.063,0.354c-1.594-0.276-2.393-0.399-3.992-0.614
			c0.024-0.181,0.036-0.27,0.061-0.45c-0.566,0.189-1.318,0.4-2.248,0.644C101.47,36.443,103.065,36.688,106.23,37.295z
			 M105.631,38.479c0.032-0.17,0.048-0.254,0.08-0.424c-2.812-0.529-4.227-0.747-7.06-1.082c-0.021,0.172-0.028,0.257-0.049,0.429
			C101.424,37.735,102.832,37.951,105.631,38.479z M105.404,39.674c0.033-0.176,0.051-0.265,0.084-0.44
			c-2.778-0.523-4.176-0.739-6.977-1.07c-0.021,0.178-0.032,0.271-0.054,0.448C101.246,38.941,102.638,39.153,105.404,39.674z
			 M103.723,35.553c-0.271-0.213-0.788-0.919-1.009-0.961c-0.164-0.031-0.839,0.366-1.419,0.59
			C102.267,35.319,102.753,35.393,103.723,35.553z M109.366,34.969c-0.405,0.269-0.604,0.402-1.004,0.675
			c-0.634-0.801-1.391-1.832-1.692-1.897c-0.37-0.08-1.435,0.432-2.067,0.512c-0.271-0.456-0.407-0.681-0.685-1.136
			c0.414-0.026,1.724-0.3,1.724-0.3c0.018-0.067-1.102-0.901-1.915-1.445c0.281-0.24,0.425-0.36,0.709-0.599
			c-0.274-0.045-0.411-0.067-0.686-0.11c0.061-0.385,0.088-0.576,0.148-0.961c2.461,0.389,3.688,0.617,6.13,1.144
			c-0.082,0.381-0.119,0.571-0.201,0.952c-0.503,0.525-1.938,1.331-1.956,1.439C107.844,33.415,108.935,34.425,109.366,34.969z
			 M108.347,31.493c-1.314-0.265-1.974-0.388-3.293-0.612c0.761,0.56,1.584,1.443,1.86,1.486
			C107.158,32.405,107.883,31.858,108.347,31.493z"/>
	</g>
</g>
</svg>
